<svg xmlns="http://www.w3.org/2000/svg" xml:space="preserve" style="enable-background:new 0 0 685 700" viewBox="0 0 685 700"><path d="m449 358-228.5.2 10.8 7.3c8.3 5.6 11.2 10.1 11.2 12.3v144.1c0 21.5 2.6 36 36.8 40.7 7.4 1 14.3 1.5 20.3 1.9 19.4 1.4 31 2.2 38.6 17.8l3.5 7.2 3.7-7.1c7.7-14.9 26.1-16.5 45.6-18.3 7.4-.7 15-1.3 21.8-2.8 12.6-2.8 27.5-11.9 27.5-39.5V377.7c0-1.9 0-5.8 10.8-12.4l12.2-7.4-14.3.1zm-198.5 71.1h181.8v61.1H250.5v-61.1zm181.8 92.8c0 17.9-7.1 28.5-21.2 31.6-6.3 1.4-13.4 2-20.8 2.7-17.6 1.6-37.2 3.4-48.2 16.8-9.7-14.2-24.1-15.2-41.8-16.5-5.9-.4-12.6-.9-19.8-1.9-29.9-4.2-29.9-14.9-29.9-32.8v-25.3h181.8V509l-.1 12.9zM19 359c0 178.7 145.3 324 324 324s324-145.3 324-324S521.7 35 343 35 19 180.3 19 359zm9.6 0c0-173.4 141-314.4 314.4-314.4 173.4 0 314.4 141 314.4 314.4 0 173.4-141 314.4-314.4 314.4-173.4 0-314.4-141-314.4-314.4zm61.7-.2c0 138.6 112.8 251.3 251.3 251.3 138.6 0 251.3-112.8 251.3-251.3S480.2 107.5 341.6 107.5C203 107.5 90.3 220.2 90.3 358.8zm9.6 0c0-133.3 108.4-241.7 241.7-241.7s241.7 108.4 241.7 241.7c0 133.3-108.4 241.7-241.7 241.7S99.9 492.1 99.9 358.8zm247.7 97.8c8.9-6.1 16.6-11.3 16.6-11.3l-2.7-4-16.6 11.3-31.7 21.7-6.4 4.4H363v-4.8h-3.5l-11.9-17.3zm6.1 17.3h-16.3c2.4-3.8 6-9.7 7.8-12.5 1.8 2.8 5.8 8.7 8.5 12.5zm-15.1-11.1-6.9 11.1h-9.4c3.4-2.3 9.7-6.6 16.3-11.1zm-56.3-27.9c-11.6 0-21.1 9.5-21.1 21.1 0 11.6 9.5 21.1 21.1 21.1 11.6 0 21.1-9.5 21.1-21.1.1-11.7-9.4-21.1-21.1-21.1zm5.4 19c0-.1-.1-.3-.1-.4 1.4-1.3 6-4.9 10.3-2.6.5 1.6.8 3.2.8 5 0 1-.1 2-.3 3-2.8-3.2-7.4-4.6-10.7-5zM279 472c-2.8-.6-5.4-1.9-7.5-3.8 4.4-.6 7.9-4 9.7-6.8.3.1.5.1.8.1.7 2.4 1.7 8.4-3 10.5zm-13-16c0-1.5.2-3 .6-4.3 2.4 3.6 7 5.4 10.4 6 .1.3.2.6.4.9-.9 1.3-4.9 6.8-9.9 4.2-1-2.1-1.5-4.4-1.5-6.8zm28.8-10.6c-4.5.1-8.6 2.8-10.8 4.9-.5-.1-.9-.2-1.4-.2l.1-.1c-.4-.7-3.8-6.7.5-10.3 4.6.2 8.7 2.4 11.6 5.7zm-18-4.8c-1.4 4.1-.1 8.5 1.4 11.3-.3.3-.5.6-.7.9-2.6-.6-8-2.3-7.8-7.2 1.9-2.2 4.3-3.9 7.1-5zm9 31.3c2.2-4 1.7-9 .7-12.3.3-.3.5-.6.7-.9 2.1.2 8.1 1.3 8.7 6.3-2.3 3.5-5.9 6-10.1 6.9zM262 477c0-2.1 1.7-3.8 3.8-3.8 2.1 0 3.8 1.7 3.8 3.8 0 2.1-1.7 3.8-3.8 3.8-2.1-.1-3.8-1.8-3.8-3.8zm32.9 0c0-2.1 1.7-3.8 3.8-3.8 2.1 0 3.8 1.7 3.8 3.8 0 2.1-1.7 3.8-3.8 3.8-2.1 0-3.8-1.7-3.8-3.8zm103.6-17.8c0-2.1 1.7-3.8 3.8-3.8 2.1 0 3.8 1.7 3.8 3.8 0 2.1-1.7 3.8-3.8 3.8-2.1 0-3.8-1.7-3.8-3.8zm-26-11.2c0-2.1 1.7-3.8 3.8-3.8 2.1 0 3.8 1.7 3.8 3.8 0 2.1-1.7 3.8-3.8 3.8-2.1 0-3.8-1.7-3.8-3.8zm-2.5 18.7c0-2.1 1.7-3.8 3.8-3.8 2.1 0 3.8 1.7 3.8 3.8 0 2.1-1.7 3.8-3.8 3.8-2.1 0-3.8-1.7-3.8-3.8zm9.1-10.5V479h48.3l-48.3-26.8v4zm4.8 4c4.4 2.4 16.4 9.1 25 13.9h-25v-13.9zm23.5 54.7c-1 0-1.9.4-2.6 1l-40-6.1-2-.3c-12.9-2-25.2-3.9-35.6-1.6-8 1.8-15.2 5.5-18.6 7.5-4.7-6.8-10.4-13.1-16.4-14-7.8-1.1-17 3.4-20 5.7l2.9 3.8c2-1.5 10.1-5.7 16.4-4.8 6.7 1 14.5 13.8 19.2 21.4l2.9 4.5c-.3.6-.5 1.3-.6 2v.6c0 4.5 4.2 5.4 8.6 6.3 3.2.7 7.1 1.5 11.9 3.6 4.5 2 7.4 4.6 9.1 6.2 1.3 1.2 2.8 2.6 4.6 1.4 2.7-1.8 2.7-1.8 5.2-2.5l7.9-2.1-5-2.9c-.1-.1-12.5-7.3-17.4-17.7-.7-1.6-2.4-2.5-4.9-2.7 1.3-4.3 4.8-11.9 13.7-12.1v-.1c2.7.3 5.5.6 8.4 1.1v5.1c-1.1 1.3-2.2 3.2-2 4.3.6 3.4 14 9.7 12.9 4.8-.5-2.2-2.4-4.7-6.2-8.2v-5.3c.8.1 1.5.2 2.2.3l2 .3 28.4 4.3v7c-1.3.9-2.2 2.4-2.2 4.1 0 2.7 2.2 4.9 4.9 4.9s4.9-2.2 4.9-4.9c0-2-1.1-3.6-2.8-4.4v-6l6.6 1c.6 1.3 2 2.2 3.5 2.2 2.2 0 4-1.8 4-4s-1.7-3.7-3.9-3.7zm-59 31.1c-.8.3-1.5.7-2.6 1.4h-.1c-1.8-1.7-5.2-4.7-10.4-7.1-5.2-2.3-9.6-3.2-12.8-3.9-1.9-.4-4.4-1-4.8-1.5v-.4c.1-.3 1.1-1.7 4.9-3.3 5.1-2.1 9.8-2.4 10.9-1.8 3.8 7.6 10.5 13.4 14.9 16.6zm-20.6-21.3s-.1.1 0 0c-2.9.5-7.4 1.8-10.6 3.9l-2.3-3.6c-1.1-1.8-2.3-3.7-3.6-5.7 3.2-1.8 9.8-5.2 16.9-6.8 2.3-.5 4.6-.8 7-.9-4.2 3.8-6.5 9.1-7.4 13.1zm-246-240c2.1.8 3.5 1.3 2.7 3.9-.3 1-.5 1.8.2 2.1.7.3 1-.4 1.1-.8.1-.3 1.7-5.2 2-6.1.5-1.3 3.1-7.8 3.6-9.3 4.9-13.3-4.3-21-9.8-23-5-1.8-10.8-1-15.2 2.2-3.4 2.5-5.8 5.8-8.2 12.4-1.7 4.8-4.1 13.5-2.7 14.1.4.1.7-.1.8-.5.1-.4.3-2 .4-2.3.4-1 1.3-1.4 3.4-.6l21.7 7.9zm-19.5-13.3c-2.9-1-4-1.8-2.9-4.9 3.9-10.8 14.3-10.9 20.2-8.8 8.2 3 12.3 11.3 9.8 18.1-1.4 3.9-3.5 4.2-6.8 3l-20.3-7.4zm35.9-28.8c2 1 3.3 1.7 2.1 4.2-.4 1.1-.8 1.8-.1 2.2.7.4 1.1-.2 1.3-.6.2-.3.3-.7.7-1.5l2-4 .3-.6c.2-.3 1.4-2.5 2.9-5.2 1.5-2.8 3.4-6.1 4.7-8.5.7-1.4.5-2.2-.4-2.7-1.7-1.1-4.5-3.3-5.1-3.6-.3-.2-.8-.2-1 .2-.2.4-.1.6 1.1 2.4 3 4.3 1.4 7.3.3 9.4-2.1 4-3.2 4.8-6.6 2.9l-8.3-4.4c-1.4-.8-1.2-1.2 0-3.5 2.1-3.9 2.9-5.3 7.1-4.3 1 .2 1.4.1 1.6-.3.3-.6-.4-.9-.7-1.1-.4-.2-2.1-1-2.5-1.1-1.1-.6-5.8-3.5-6.5-3.9-.5-.3-.8-.1-1 .2-.1.2-.2.5.3 1.1 2.1 2.2 2.9 3.2.1 8.5-1.5 2.8-1.9 2.6-3.4 1.8l-7-3.7c-2.4-1.3-2.6-1.6-1.4-4 3.6-6.8 6.1-7 7.6-6.9 2.2.1 2.5.1 2.8-.4.3-.5-.3-.8-.6-.9l-4.4-2.3c-1.1-.6-1.5-.8-1.8-.2-.1.1-.1.2-.7 1.5s-1.9 3.8-4.5 8.7l-1.2 2.3c-2.2 4.1-3.3 6.1-3.9 7.2-.6 1-.7 1.1-.7 1.1-.2.3-.5 1 .2 1.3.7.4 1.1-.3 1.7-1.3 1.4-2.3 2.7-1.6 4.7-.6l20.3 10.6zm16.9-29.5c1.8 1.3 3 2.1 1.6 4.5-.6 1-1 1.6-.4 2.1.7.5 1.1-.1 1.3-.5.6-.8 3-4.7 3.6-5.5 1.1-1.5 2.9-3.8 4-5.3.2-.4.7-.9 0-1.4-.7-.5-1.1.1-1.9 1.1-1.8 2.4-3.1 1.5-4.9.2l-8.1-5.6c-.6-.4-.8-.6-.5-1 .1-.2 1.2-1 1.5-1.2 2-1.4 2.8-2.2 3.6-3.3 2.6-3.7 3.5-10.2-1.9-14-3.2-2.2-9.3-3.6-14.4 3.8-.8 1.2-4.2 6.4-5 7.5-.5.7-3 3.8-3.4 4.5-1 1.5-1.2 1.6-.5 2.1s1.1-.2 1.8-1c1.7-2.2 2.9-1.3 4.8-.1l18.8 13.1zm-15.5-18c-2.2-1.5-3.3-2.7-1.5-5.2 2.5-3.6 7.2-4.6 11.1-1.9 4.4 3.1 3.8 7.7 2.1 10.1-.7.9-1.6 2.2-2.6 2.6-.6.4-.8.3-1.5-.3l-7.6-5.3zm36.9-21.3c1-1.1 1.1-1.2 2.7-.6l6.4 2.6c.2.1 1 .4 1.4.8.6.5.5 1.1-.4 2.2-.6.9-1.1 1.6-.6 2.1.6.5 1 0 1.4-.4.1-.1 1.8-2.4 4.1-4.8.6-.7 3.8-3.9 4.4-4.6.2-.2.8-.9.3-1.4-.5-.5-1-.1-1.7.5-1.7 1.4-3 1-7.3-.5l-21-7.5c-1.1-.4-2.6-.9-4.1-1.6-2.2-.9-2.6-1-3-.6-.4.4-.3.4 2.3 5.5 4.6 9 10.8 21 12.2 24.6.7 2 .4 2.4-.6 3.9-.5.7-.9 1.4-.4 1.8.6.5 1.1 0 1.3-.2.5-.5 2.5-3.1 2.9-3.5 1.1-1.2 3.4-3.4 3.7-3.8.8-.9 1.3-1.4.7-1.9-.5-.4-1-.1-2 1-.9.9-1.9 1.8-2.9.9-.5-.4-1.2-1.8-1.4-1.9l-3.1-5.3c-.8-1.3-.8-1.3.3-2.5l4.4-4.8zm-5.4 3.1c-.7.7-.9 1-1.3.6-.3-.3-.6-.7-.6-.9l-4.6-8.7 9.5 3.4c.4.1.8.3 1 .4.1.1.3.3-.6 1.2l-3.4 4zm30-17.7c1.5 1.8 2.4 2.8.5 4.7-.8.8-1.4 1.3-.9 1.9.5.6 1 .1 1.4-.2.8-.6 4-3.6 4.7-4.2.2-.1 4.3-3.4 5.1-4 .3-.3.9-.7.4-1.3-.5-.6-1.1-.2-2.1.6-2.2 1.6-3.1.5-4.6-1.3l-6.3-7.5c-.6-.7-.7-1 0-1.6 1.9-1.6 2.2-1.6 4.6-.6l13 5.3c1.2.5 1.7.7 2.4.1.4-.3 1.8-1.8 2.1-2.1.6-.5 3.5-2.6 4-3.1.3-.2.7-.6.3-1.1-.5-.5-.8-.3-2.3.7-1.3.8-2.8.3-4.8-.5l-10.1-3.8c-2.4-.9-3.1-.8-4-.7 1.2-1.5 4.6-6.1.5-11-1.2-1.5-6.1-6-13.5.2-1.2 1-6.7 5.9-7.8 6.8-.5.4-2.7 2-3.1 2.3-1.4 1.2-1.5 1.3-1.1 1.9.5.6 1.1.1 2.1-.6 2.1-1.6 3.1-.5 4.5 1.2l15 17.9zm-10.7-21.8c-1.4-1.6-2.2-2.7-.2-4.3 5.2-4.3 9.5-.4 10.7 1.1 4.4 5.2.2 8.7-1.3 9.9-2.1 1.7-2.2 1.7-3.4.2l-5.8-6.9zm39-30c-1-1.5-.7-1.7 1.9-3.3 3-1.9 5.3-3.3 8.8.7.8.9 1.1.7 1.4.6.6-.4.3-1-.2-1.9l-3.2-5.8c-.7-1.1-1.2-1.8-1.8-1.4-.4.2-.3.6-.2 1 .2 1 .3 1.8-4.4 4.7l-14.8 9.3c-1 .6-1.9 1.1-2.9 0-.3-.4-.6-.5-1-.3-.4.3-.4.6-.2 1.3l2.2 7.7c.1.3.2.6.3.8.2.3.6.5 1 .2s.5-.6.5-1.6c-.4-5.9 2.7-7.8 5.4-9.5.9-.6 1.3-.8 2 .4l13.4 21.5c1.1 1.8 1.9 3-.3 4.6-.9.7-1.5 1.1-1.1 1.8.4.7 1 .3 1.4.1.9-.5 4.5-3.1 5.3-3.6 1.5-1 4-2.3 5.6-3.2.4-.2 1-.6.5-1.3-.4-.7-1.1-.3-2.1.2-2.4 1.3-3.2.1-4.4-1.8l-13.1-21.2zm51-23.4h.1l9.2 21.6c1 2.4 1.5 3.6-.8 4.8-1.5.7-1.9.9-1.6 1.7.2.6.8.4 1.2.3 1-.4 3.6-1.7 6.2-2.7 1.9-.8 4.6-1.6 5.4-1.9.5-.2 1.3-.5 1-1.2-.2-.6-.8-.6-1.9-.1-2.2.9-2.6.2-3.9-2.9l-9.4-21.1c-1.2-2.6-1.3-3.3 1-4.4 1.4-.7 1.8-.9 1.6-1.5-.3-.7-1-.4-1.5-.1-.6.2-1.8 1-2.9 1.4-1.1.4-3.2 1-4.3 1.5-.8.3-1.3.7-1.3 2.6l.3 23.7-17-17.6c-1-1-1.4-.8-1.9-.6-.6.2-1.6.9-3.4 1.6-1.4.6-4.2 1.5-4.8 1.7-.8.3-1 .7-.8 1.1.2.6.6.7 2.4.1 2.3-.9 2.4-.9 3.4 1.6 2.7 6.7 7.6 22 7.8 22.3 1.3 3.6.7 4.2-.9 5.1-1.3.8-1.8 1.1-1.5 1.7.2.6.8.5 1.1.3.8-.3 2.7-1.3 4.5-2 2.2-.9 3.9-1.3 4.6-1.6.6-.2 1.5-.6 1.2-1.3-.3-.7-1.1-.4-2.3 0-2.5 1-3.1.9-6.3-7-2.1-5.2-4.1-11.1-6-16.8h.1l19.8 20.2c.7.7 1.2 1 1.7.8.6-.2.6-.8.5-2.2l-.6-29.1zm31.7 14.7c.5 2.2.9 3.6-1.7 4.4-1.1.4-1.9.6-1.7 1.4.2.8.9.6 1.3.5.4-.1.8-.2 1.6-.5s2.1-.6 4.3-1.2l.6-.2c.3-.1 2.8-.6 5.8-1.3 3.1-.7 6.8-1.6 9.5-2.2 1.5-.4 1.9-1.1 1.7-2.1-.3-2-.6-5.5-.8-6.2-.1-.3-.4-.8-.8-.6-.5.1-.5.4-1 2.4-1.2 5.1-4.5 5.9-6.8 6.5-4.4 1.1-5.7.8-6.6-2.9l-2.3-9.1c-.4-1.6 0-1.7 2.6-2.3 4.3-1.1 5.8-1.4 7.9 2.4.5.9.9 1.1 1.3 1 .6-.2.4-.9.4-1.2-.1-.4-.7-2.2-.8-2.6-.3-1.2-1.3-6.7-1.5-7.4-.1-.6-.4-.7-.8-.6-.3.1-.5.2-.6 1-.3 3-.4 4.3-6.3 5.8-3.1.8-3.2.3-3.6-1.3l-1.9-7.7c-.7-2.6-.5-3.1 2.1-3.7 7.5-1.9 9.3-.2 10.2 1 1.4 1.7 1.6 1.9 2.2 1.8.5-.1.4-.8.3-1l-1.2-4.9c-.3-1.2-.4-1.6-1-1.5-.2 0-.2.1-1.6.5-1.4.4-4.1 1.1-9.5 2.5l-2.5.6c-4.5 1.1-6.8 1.6-7.9 1.9-1.2.2-1.2.2-1.3.2-.4.1-1.1.3-.9 1 .2.8.9.7 2.1.4 2.7-.5 3 .9 3.6 3.1l5.6 22.1zm59.3-12.6L311 64.3c-.4-.5-1-1.5-2-1.5-.7.1-2 .4-3.5.5-1.7.2-4.2.1-4.8.2-1 .1-1.7.2-1.6.9.1.8.9.7 2.1.7 2.4-.2 2.9.3 3.2 4.5l1.6 18c.6 7.4.4 7.6-1.9 8.1s-2.5.5-2.4 1.2c.1.7.8.6 1 .6 1-.1 3.4-.5 6.2-.8 1.7-.1 3.8-.1 4.4-.2.4 0 1.3-.1 1.2-.9-.1-.7-.3-.7-2.5-.7-2.5 0-3.2-.5-3.9-8.3L306.3 68l.1-.1L332 94.6c1 1.1 1.4 1.1 1.8 1.1.8-.1.7-1.1.7-1.6l-2.6-28.3c-.3-3 .5-3.2 2.5-3.5 1.6-.2 2.1-.5 2-1.1-.1-.8-.8-.8-1-.7-.9.1-5 .7-5.8.7-.7.1-3.8.1-4.4.2-.4 0-1.4.1-1.3.9.1.8.9.7 2.5.7 2.2-.1 2.8-.1 3.5 6.4l1.7 16.7h-.2zm34.9-20.4c.1-1.8.4-1.8 3.5-1.6 3.5.2 6.2.4 6.7 5.7.1 1.2.5 1.2.8 1.3.7 0 .9-.6 1-1.7l.8-6.6c.1-1.3.2-2.2-.6-2.2-.4 0-.6.3-.8.7-.4.9-.8 1.6-6.4 1.2l-17.4-1.2c-1.2-.1-2.2-.2-2.3-1.7 0-.5-.2-.8-.6-.8-.5 0-.7.3-.9.9l-2.8 7.5c-.1.3-.2.6-.2.9 0 .3.2.7.7.8.5 0 .8-.2 1.3-1 3.1-5 6.7-4.7 10-4.5 1.1.1 1.5.1 1.4 1.5l-1.8 25.2c-.1 2.1-.2 3.6-3 3.6-1.1 0-1.9 0-2 .8-.1.8.6.9 1.1.9 1 .1 5.4.2 6.4.2 1.8.1 4.6.5 6.4.7.4 0 1.1.1 1.2-.7.1-.8-.7-.9-1.8-1.1-2.7-.4-2.6-1.8-2.4-4l1.7-24.8zm77.5 29.8c2.7-8.9-2.9-18.5-12.7-21.4-10.1-3.1-20.1 1.7-23 11.1-3 9.9 3.6 19.4 12.7 22.1 8.9 2.6 19.9-1.7 23-11.8zm-6.3-1.7c-2.3 7.5-8.6 14.4-15.8 12.2-7-2.1-9.5-11.7-6.9-20.1 2.3-7.4 8.1-12.9 15.4-10.7 8.2 2.5 9.2 12.4 7.3 18.6zm15.2 18.8c-.9 2-1.5 3.3-4.1 2.4-1.1-.4-1.8-.7-2.1 0-.3.7.3 1 .7 1.2 1.6.8 4.3 1.8 6 2.5 1.7.8 4.2 2.2 5.9 3 .4.2 1 .5 1.4-.2.3-.7-.3-1.1-1.7-1.8-2.2-1.2-1.5-2.7-.6-4.6l3.9-8.4c1.1-2.3 1.1-2.3 4.7-.6 1.2.6 4.4 2 3.8 5 0 .3-.3 1.8-.3 2.1-.1.4-.1.9.4 1.2.6.3.9-.3 1-.7l.9-2.4c.4-1.2.8-2 1-2.5.3-.7 2.1-4 2.4-4.7.2-.5.3-.9-.2-1.1-.5-.2-.9.1-1.2.4-2 2.1-3 3-7 1.2-.7-.3-2.3-1.1-3-1.5-.6-.4-.7-.5.5-3.2l3.1-6.6c1.1-2.3 2-2 3.6-1.2 7.2 3.4 7.3 5.4 7.2 8.6 0 .3 0 1.2.5 1.4.5.3.9-.5 1-.7l2.4-5.2c.3-.6.4-.9-.4-1.3 0 0-.1 0-1.5-.6-1.3-.5-3.9-1.7-9-4.1l-.6-.3c-4.9-2.3-7.3-3.5-8.5-4.1-1.2-.6-1.2-.7-1.3-.7-.3-.2-1-.5-1.3.2-.3.7.4 1.1 1.4 1.7 2.4 1.3 1.8 2.6.8 4.6l-9.8 21zm45.9 25.9c-1.3 1.8-2.2 3-4.5 1.5-.9-.6-1.6-1-2.1-.4-.4.6.1 1 .4 1.3.4.3.6.1 8 5.5 10 7.3 9.8 7.4 10.2 7.7.8.6 1.2.5 1.9-.3.6-.7 4-4.2 4.3-4.6.3-.4.4-.8-.1-1.1-.3-.2-.6-.1-1 .1-5.6 2.7-9 .8-11.1-.7-2.7-2-2.4-4.1-.4-6.8l12.8-17.6c1.2-1.7 2.2-2.8 4.5-1.3.9.6 1.6 1 2.1.4.4-.6-.1-1-.5-1.3-.8-.6-2.5-1.6-5.3-3.6-2.3-1.7-4.5-3.5-5.2-4.1-.4-.3-.9-.7-1.4-.1-.5.7.1 1.2 1 1.9 2.1 1.8 1.3 3 0 4.8l-13.6 18.7zm39.5 24.1c1 1 1.2 1.2.4 2.7l-3 6.3c-.1.2-.5 1-.8 1.4-.6.6-1.1.4-2.2-.5-.8-.7-1.6-1.2-2.1-.7s0 1 .3 1.4c.1.1 2.3 2 4.6 4.3.7.7 3.7 4 4.3 4.7.2.2.9.9 1.4.4s.2-1-.4-1.7c-1.3-1.8-.9-3 .8-7.2l8.6-20.6c.4-1 1.1-2.5 1.8-4 1-2.2 1.2-2.5.7-3-.4-.4-.4-.3-5.6 2-9.2 4.1-21.6 9.7-25.2 10.9-2.1.6-2.5.3-3.8-.8-.7-.5-1.3-1-1.8-.5-.6.6-.1 1.1.2 1.3.5.5 2.9 2.6 3.3 3 1.1 1.1 3.2 3.5 3.6 3.9.9.9 1.3 1.3 1.9.8.5-.5.1-1-.8-2.1-.8-.9-1.7-2-.8-2.9.5-.5 1.8-1.2 2-1.3l5.4-2.8c1.3-.7 1.3-.7 2.5.5l4.7 4.5zm-2.8-5.7c-.7-.7-.9-.9-.5-1.3.3-.3.8-.5.9-.6l8.9-4.1-3.9 9.3c-.1.3-.3.8-.5 1-.1.1-.3.3-1.2-.6l-3.7-3.7zm16.5 30.4c-1.8 1.4-3 2.2-4.8.2-.7-.9-1.3-1.5-1.9-1-.7.5-.2 1.1 0 1.4.6.8 4.2 5.2 4.2 5.2.9 1.3 5.4 7.6 5.8 8 6.5 8.6 13.6 4.4 15.1 3.3 1.4-1.1 2.7-2.6 3.2-4.7 1-3.5-.7-6-2.1-8l.1-.1c1.5 1.4 5.7 5 10.2 1.6 6.5-4.9-.3-13.9-1.9-16.1 0 0-4.9-6.4-7.3-8.9-.8-.8-1.5-1.3-2-.9s-.1.9 0 1c.1.1.3.4.7.8 1.5 2 1.3 2.5-2.3 5.2l-17 13zm15.5-2.3c-1-1.3-.3-1.9.4-2.4l7-5.3c1.1-.9 2.1-1.6 4.2 1.1 2.8 3.8 2.6 7.2-.9 9.9-1.6 1.2-5.7 3.4-9.4-1.6l-1.3-1.7zm-3.9.9c1.5-1.1 1.8-1.3 4 1.6 1 1.3 5.2 7.1-1.5 12.2-1.9 1.4-5.1 2.7-8.2 1.2-1.4-.7-2.7-2.4-3-2.7-2.4-3.2-1-5 2.6-7.8l6.1-4.5zm37.3 55.3c8.2-4.5 10.7-15.3 5.8-24.2-5.1-9.2-15.7-12.8-24.2-8-9.1 5-10.9 16.4-6.3 24.7 4.5 8.1 15.5 12.6 24.7 7.5zm-3.4-5.6c-6.9 3.8-16.2 4.4-19.9-2.2-3.6-6.4 1.3-15 9-19.3 6.8-3.7 14.8-3.7 18.5 3 4.2 7.5-1.9 15.4-7.6 18.5zm-2 24.7c-2.2.7-3.5 1.2-4.6-1.2-.4-1.1-.7-1.8-1.5-1.6-.8.3-.5.9-.3 1.3.3.9 2 5 2.3 5.9.1.2 1.6 5.3 1.9 6.2.1.4.3 1.1 1 .9.8-.3.6-1 .2-2.2-.7-2.6.7-3.1 2.8-3.8l9.3-3.2c.9-.3 1.2-.3 1.5.6.8 2.3.7 2.6-1.1 4.5l-9.6 10.3c-.9.9-1.3 1.3-1 2.2.2.5 1 2.3 1.2 2.7.3.8 1.2 4.2 1.4 4.9.1.4.4.9.9.7.7-.2.6-.7.2-2.4-.3-1.5.7-2.7 2.2-4.3l7.1-8c1.8-1.9 1.8-2.6 2-3.5 1 1.6 4 6.5 10 4.4 1.8-.6 7.8-3.6 4.7-12.7-.5-1.5-3.1-8.3-3.6-9.7-.2-.6-.9-3.2-1.1-3.7-.6-1.7-.7-1.9-1.4-1.7-.7.2-.5 1-.2 2.1.7 2.6-.7 3.1-2.8 3.8l-21.5 7.5zm24.2-2.2c2-.7 3.3-1.1 4.1 1.3 2.2 6.4-3.1 9-4.9 9.6-6.4 2.2-8.2-2.9-8.8-4.7-.9-2.6-.8-2.6 1-3.2l8.6-3zM61.8 429c-3.2.6-9 1.1-10.7-7.4-1.8-9.1 4.8-10.4 8.5-11.1l16.7-3.2c2.1-.4 3.5-.7 4.2 2.1.3 1.1.5 1.8 1.2 1.7.8-.2.7-.8.6-1.2-.1-.3-.8-2.7-1.5-6.4s-.9-5.8-1-6.3c-.1-.4-.2-1.1-1-1-.8.2-.7 1-.5 2.1.4 2.7-1.1 3-3.3 3.4L57.7 405c-9 1.7-9.6 8.9-8.2 16.1 2.3 12 10 10.5 13 9.9l16.7-3.2c4.4-.9 4.9-.3 5.5 2.1.2.7.4 1.7 1.2 1.5.2 0 .7-.3.6-1.1-.1-.7-.8-3.1-1.2-5.1-.5-2.5-.5-3.7-.7-4.5-.1-.5-.2-1.2-.9-1.1-.7.1-.7.8-.5 1.9.3 2.9-.2 3.5-4.6 4.3L61.8 429zm13.5 44.8 15.4-25.7c.3-.5 1.2-1.4.9-2.3-.3-.7-.9-1.8-1.5-3.2-.6-1.6-1.3-4-1.5-4.5-.4-.9-.7-1.6-1.3-1.3-.8.3-.4 1.1-.1 2.2.9 2.3.5 2.8-3.4 4.3l-16.9 6.5c-6.9 2.7-7.2 2.5-8.3.4-1.1-2-1.2-2.2-1.8-2-.7.3-.4 1-.3 1.1.4.9 1.4 3.1 2.4 5.7.6 1.6 1.1 3.6 1.4 4.2.2.4.5 1.2 1.2.9.7-.3.6-.5-.1-2.6-.7-2.4-.4-3.2 6.9-6l17.4-6.9.1.1-18.6 32c-.8 1.3-.7 1.7-.5 2.1.3.8 1.3.4 1.8.2L95 468.7c2.8-1.1 3.2-.4 4.1 1.4.7 1.4 1 1.9 1.6 1.6.8-.3.5-1 .4-1.2-.3-.9-2-4.6-2.3-5.4-.3-.7-1.1-3.6-1.4-4.1-.1-.4-.5-1.3-1.2-1-.7.3-.5 1.1.1 2.6.7 2.1.9 2.6-5.2 5.1l-15.6 6.2-.2-.1zm28.3 13.2c1.9-1 3.1-1.7 4.6.6.6 1 1 1.7 1.7 1.3.7-.4.4-1 .2-1.4-.4-.7-1.4-2.2-3.2-5.6-1.6-2.9-2.3-4.8-2.8-5.8-.2-.4-.5-1-1.2-.7-.7.4-.4 1.1.1 2.2 1.1 2.5-.2 3.2-2.2 4.2l-20.3 10.8c-2 1-3.2 1.7-4.7-.6-.6-1-1-1.7-1.7-1.3-.7.4-.4 1-.2 1.4.3.5 1.7 2.8 3.2 5.5 1.7 3.2 2.3 4.9 2.9 5.9.2.4.5 1 1.2.7.7-.4.4-1.1-.1-2.2-1.1-2.5.2-3.2 2.2-4.2l20.3-10.8zm15.6 23.1c1.5-1 1.7-.7 3.3 1.9 1.9 3 3.4 5.2-.5 8.8-.8.8-.7 1.2-.5 1.4.4.6 1 .3 1.9-.2l5.8-3.3c1.1-.7 1.8-1.2 1.4-1.8-.2-.4-.6-.3-1.1-.2-1 .2-1.8.4-4.8-4.3l-9.5-14.6c-.7-1-1.1-1.9-.1-2.9.4-.3.5-.6.3-1-.3-.4-.6-.4-1.3-.2l-7.6 2.3c-.3.1-.6.2-.8.3-.3.2-.4.6-.2 1 .3.4.6.5 1.6.5 5.8-.5 7.8 2.5 9.6 5.3.6.9.8 1.3-.4 2l-21.2 13.8c-1.8 1.2-3 2-4.6-.2-.7-.9-1.2-1.5-1.8-1.1-.7.4-.3 1-.1 1.4.6.9 3.1 4.4 3.6 5.2 1 1.5 2.3 4 3.3 5.5.2.4.6 1 1.3.5.7-.4.3-1.1-.3-2.1-1.3-2.4-.1-3.2 1.8-4.4l20.9-13.6zm-5.6 34.5c-1.7 1.4-2.8 2.4-4.7.4-.8-.8-1.4-1.4-2-.9-.6.5-.2 1.1.1 1.4.2.3.6.6 1.2 1.2s1.5 1.6 3 3.3l.4.5c.2.2 1.8 2.2 3.8 4.7 2 2.5 4.4 5.4 6.2 7.5 1 1.2 1.8 1.2 2.6.6 1.6-1.2 4.7-2.9 5.2-3.4.2-.2.5-.7.2-1-.3-.4-.6-.3-2.6.2-5.1 1.1-7.2-1.4-8.8-3.3-2.9-3.5-3.2-4.8-.3-7.2l7.2-6c1.2-1 1.5-.7 3.2 1.3 2.9 3.4 3.8 4.6 1.3 8.2-.6.9-.6 1.3-.3 1.6.4.5 1 0 1.3-.2.3-.3 1.7-1.6 2-1.9.9-.8 5.5-4.1 6-4.6.5-.4.4-.7.2-.9-.2-.2-.4-.3-1.1-.1-2.8 1.1-4.1 1.5-8-3.1-2-2.4-1.7-2.7-.4-3.8l6-5.1c2.1-1.7 2.5-1.8 4.3.3 5 5.9 4.2 8.2 3.6 9.7-.9 2-1 2.3-.6 2.7.4.4.9 0 1.1-.2l3.8-3.2c1-.8 1.3-1.1.9-1.6-.1-.1-.2-.1-1.1-1.2-1-1.1-2.8-3.2-6.4-7.5l-1.7-2c-3-3.5-4.4-5.4-5.2-6.3-.7-1-.7-1-.8-1.1-.2-.3-.7-.8-1.3-.3-.6.5-.2 1.1.5 2.1 1.6 2.2.5 3.1-1.2 4.6l-17.6 14.6zm23.7 26.4c-1.5 1.7-2.5 2.8-4.6 1-.8-.7-1.5-1.2-2-.6s0 1 .3 1.3c.2.2 4.2 3.5 4.9 4.1 1 .9 6.1 5.8 7.3 6.8 10.6 9.5 21.1 3.8 25-.5 3.5-3.9 5-9.7 3.7-14.9-1-4.1-3.2-7.5-8.4-12.2-3.8-3.4-11-8.9-12-7.8-.3.3-.2.6.2 1 .3.3 1.7 1 2 1.2.8.7.8 1.7-.7 3.4L137.3 571zm19.5-13c2-2.3 3.2-3 5.6-.8 8.6 7.7 4.8 17.4.6 22-5.8 6.5-15.1 7.1-20.4 2.3-3.1-2.8-2.5-4.8-.2-7.4l14.4-16.1zm48.6 57.1c3.2-5.3-.4-10.5-2.3-13.2-2.8-3.8-4.8-6.6-2.8-9.9 1.1-1.8 3.9-3.7 7.8-1.4 3.9 2.3 3.1 5.5 2.6 7.6-.4 1.7-.4 2.1.1 2.4.7.4.9 0 1.5-1 2.5-4.1 2.7-4.5 2.4-5.2-.5-.7-2.8-3.1-5.5-4.7-5.9-3.6-11.4-1.8-14 2.5-3 4.9-.4 9 2.4 12.9 2.4 3.6 4.5 7.2 2.4 10.9-2.3 3.8-6.7 3-8.7 1.8-3.3-2-4.7-6.8-3.1-11.5.2-.5.2-.9-.2-1.2-.6-.3-1 .3-1.1.5-1.1 1.6-2.5 3.9-2.7 4.1-.7 1.2-1 1.8-.8 2.5.5 1.1 2.7 4.1 6.3 6.3 6.1 3.8 12.6 1.7 15.7-3.4zm32.2-6.6c.7-1.6 1-1.5 3.8-.3 3.2 1.4 5.7 2.5 4.4 7.7-.3 1.1.1 1.3.3 1.4.6.3 1-.3 1.5-1.2l3-5.9c.5-1.2.9-2 .2-2.3-.4-.2-.7.1-1 .4-.7.7-1.3 1.3-6.4-1l-16-7.1c-1.1-.5-2-.9-1.6-2.4.1-.5.1-.8-.3-1-.4-.2-.7 0-1.1.6l-5.2 6.1c-.2.2-.4.5-.5.7-.1.3 0 .8.4.9.4.2.8.1 1.6-.5 4.6-3.6 7.9-2.1 10.9-.8 1 .4 1.4.6.8 1.9l-10.3 23.1c-.9 1.9-1.5 3.3-4 2.3-1.1-.4-1.8-.6-2.1.1-.3.7.3 1 .7 1.2.9.4 5.1 2 5.9 2.4 1.6.7 4.1 2.1 5.8 2.8.4.2 1 .5 1.4-.3.3-.7-.3-1.1-1.4-1.6-2.4-1.3-1.8-2.6-.9-4.6l10.1-22.6zm23.6 27.4c1.4.4 1.6.5 1.7 2.2l.3 6.9c0 .2.1 1.1-.1 1.6-.2.8-.8.9-2.2.6-1.1-.2-2-.3-2.2.4-.2.7.5.9 1 1.1.2 0 2.9.7 6.1 1.6.9.3 5.1 1.8 6 2.1.3.1 1.2.4 1.4-.3.2-.7-.3-1-1.2-1.3-2-1-2.2-2.3-2.6-6.8l-2.1-22.2c-.1-1.1-.2-2.7-.3-4.4-.1-2.4-.2-2.8-.7-3-.5-.2-.5-.1-4 4.3-6.2 7.9-14.5 18.7-17.1 21.4-1.5 1.5-2 1.4-3.8 1.1-.9-.2-1.6-.3-1.8.4-.2.8.4 1 .8 1.1.7.2 3.8.9 4.4 1.1 1.5.5 4.5 1.6 5 1.8 1.2.4 1.8.6 2-.2.2-.6-.4-1-1.7-1.4-1.2-.4-2.4-.9-2.1-2.2.2-.6 1.1-1.9 1.1-2l3.5-5c.8-1.2.8-1.2 2.4-.7l6.2 1.8zm-5.1-3.7c-.9-.3-1.2-.4-1.1-.9.1-.4.4-.8.5-.9l5.9-7.8.9 10.1c.1.4.1.8 0 1.1 0 .2-.1.4-1.3 0l-4.9-1.6zm44.6-5.5c.3-1.8.6-1.7 3.6-1.2 3.5.6 6.1 1.1 6.1 6.4 0 1.2.4 1.3.6 1.3.7.1.9-.5 1.2-1.6l1.5-6.5c.2-1.3.4-2.1-.4-2.3-.4-.1-.6.2-.9.6-.5.9-.9 1.5-6.5.6l-17.2-3c-1.2-.2-2.1-.4-2.1-1.9 0-.5-.1-.8-.5-.9-.5-.1-.7.2-1 .8l-3.5 7.2c-.1.3-.3.6-.3.8-.1.3.1.7.6.8.5.1.8-.1 1.4-.9 3.6-4.6 7.2-4 10.4-3.4 1.1.2 1.5.3 1.3 1.7l-4.4 24.9c-.4 2.1-.6 3.5-3.3 3.2-1.1-.1-1.9-.2-2 .6-.1.8.6.9 1 1 1 .2 5.4.7 6.3.9 1.8.3 4.5 1 6.3 1.3.4.1 1.1.2 1.3-.6.1-.8-.6-1-1.7-1.2-2.6-.6-2.4-2.1-2-4.3l4.2-24.3zm22 27.3c-.1 2.2-.1 3.7-2.9 3.8-1.1.1-2 .1-2 .9s.7.8 1.1.9h6.9c.3 0 2.9.2 6 .3 3.2.2 7 .4 9.7.5 1.6.1 2.1-.5 2.2-1.6.2-2 1-5.5 1-6.2 0-.3-.1-.8-.6-.8s-.6.2-1.6 2.1c-2.6 4.5-5.9 4.4-8.3 4.3-4.6-.2-5.7-.8-5.6-4.7l.3-9.4c.1-1.6.5-1.6 3.1-1.5 4.5.2 6 .3 7 4.5.2 1 .6 1.3 1 1.3.7 0 .7-.7.7-1.1 0-.4-.1-2.3-.1-2.7 0-1.2.6-6.8.6-7.5 0-.6-.2-.8-.6-.8-.3 0-.5.1-.8.8-1.1 2.8-1.6 4-7.6 3.8-3.2-.1-3.1-.5-3.1-2.3l.3-7.9c.1-2.7.3-3.1 3-3 7.7.3 9 2.4 9.6 3.8.9 2 1 2.3 1.6 2.3.5 0 .6-.6.6-.9l.2-5c0-1.3.1-1.7-.6-1.7-.2 0-.2 0-1.6.1-1.5 0-4.2 0-9.8-.2l-2.6-.1c-4.6-.2-7-.3-8.1-.4-1.2-.1-1.2-.2-1.4-.2-.4 0-1.1 0-1.1.7 0 .8.7.9 1.9 1 2.7.3 2.7 1.7 2.6 4l-1 22.9zm51.2-6c-.4-6.1-6.3-8.4-9.4-9.5-4.5-1.5-7.7-2.6-8-6.5-.1-2.1 1.1-5.3 5.5-5.6 4.5-.3 5.7 2.7 6.5 4.8.7 1.6.9 2 1.4 1.9.8-.1.7-.5.6-1.7-.3-4.8-.4-5.3-1-5.6-.8-.3-4-1-7.2-.8-6.9.5-10.4 5.1-10 10.1.4 5.8 4.8 7.6 9.4 9.2 4 1.5 7.9 3.3 8.2 7.6.3 4.4-3.8 6.3-6 6.5-3.9.3-7.8-2.9-9.2-7.6-.1-.5-.3-.9-.8-.9-.7 0-.7.8-.6 1 0 2 .2 4.7.2 4.9.1 1.4.2 2.1.8 2.5 1 .6 4.5 1.9 8.8 1.6 7.1-.6 11.2-5.9 10.8-11.9zm62.1-20.3c-2.4-9-12.3-14.1-22.1-11.5-10.2 2.7-16.2 12.1-13.6 21.6 2.7 10 13.3 14.5 22.5 12.1 8.9-2.4 16-12 13.2-22.2zm-6.2 1.9c2 7.6.4 16.8-7 18.8-7.1 1.9-14.3-4.9-16.5-13.4-2-7.5 0-15.3 7.4-17.2 8.3-2.3 14.4 5.6 16.1 11.8zm23 3.9c.9 2.1 1.4 3.4-1 4.6-1 .5-1.8.9-1.5 1.6.3.8 1 .5 1.4.3 1.7-.7 4.2-2 5.9-2.7 1.7-.7 4.4-1.6 6.1-2.4.4-.2 1.1-.4.8-1.1-.3-.8-1-.5-2.5.1-2.4.8-3-.7-3.8-2.6l-3.6-8.5c-1-2.4-1-2.4 2.7-3.9 1.3-.5 4.5-1.9 6.3.5.2.2 1.2 1.5 1.4 1.7.2.3.6.7 1.1.5.6-.3.3-.9.2-1.2l-1.2-2.3c-.6-1.1-.9-2-1.1-2.4-.3-.8-1.6-4.2-1.9-4.9-.2-.5-.5-.8-1-.6-.5.2-.5.7-.5 1.1.3 2.9.2 4.3-3.8 6-.8.3-2.3 1-3.1 1.2-.7.2-.9.2-2-2.5l-2.8-6.7c-1-2.4-.2-2.8 1.5-3.5 7.4-3.1 8.9-1.8 11.2.4.2.2.9.8 1.4.6.5-.2.2-1 .1-1.2l-2.3-5.3c-.3-.7-.4-.9-1.2-.5 0 0-.1.1-1.4.7-1.3.6-3.9 1.8-9.1 4l-.6.3c-5 2.1-7.4 3.1-8.8 3.6-1.3.5-1.3.5-1.4.5-.3.1-1 .4-.7 1.1.3.7 1.1.4 2.2.1 2.6-.9 3.1.4 4 2.5l9 20.9zM501 600c1.2-.8 1.4-.9 2.8.2l5.5 4.2c.2.1.9.7 1.2 1.1.4.7.2 1.2-.9 2-.9.7-1.5 1.3-1.1 1.9.4.6 1 .3 1.5 0 .1-.1 2.4-1.8 5.2-3.6.8-.5 4.7-2.8 5.5-3.3.3-.2 1-.7.7-1.3-.4-.6-.9-.4-1.8.1-2 .9-3.2.2-6.9-2.3l-18.4-12.7c-.9-.6-2.3-1.6-3.5-2.6-1.9-1.4-2.2-1.7-2.7-1.3-.5.3-.4.3.8 5.9 2.1 9.8 5 23.1 5.4 26.9.2 2.2-.2 2.5-1.6 3.6-.7.6-1.2 1.1-.9 1.7.4.7 1 .3 1.3.1.6-.4 3.2-2.3 3.7-2.6 1.3-.9 4.1-2.4 4.6-2.7 1-.7 1.6-1 1.2-1.7-.4-.5-1-.3-2.2.4-1.1.6-2.3 1.3-3 .1-.4-.5-.7-2-.8-2.2L495 606c-.4-1.4-.4-1.4 1-2.3l5-3.7zm-6.1 1.7c-.8.5-1.1.7-1.4.3-.2-.3-.4-.9-.4-1l-2.2-9.5 8.3 5.8c.3.2.7.5.8.7.1.1.2.3-.8 1l-4.3 2.7zm37.5-48.5 16.4 16.8c1.8 1.8 2.7 2.9 1 4.7-1.1 1.2-1.4 1.6-.9 2.1.4.5.9.1 1.2-.2.8-.7 2.8-2.9 4.8-4.8 1.5-1.4 3.7-3.2 4.3-3.7.4-.4 1-1 .5-1.5-.4-.4-1-.2-1.8.6-1.8 1.6-2.3 1.2-4.7-1.3l-16.3-16.4c-2-2-2.4-2.6-.7-4.5 1-1.1 1.4-1.5.9-2-.5-.5-1 0-1.5.4-.4.4-1.4 1.6-2.2 2.4-.9.8-2.6 2.1-3.5 2.9-.6.6-1 1.1-.3 2.9l8.7 22-22.2-10.3c-1.3-.6-1.6-.3-2 .1-.5.4-1.2 1.4-2.6 2.7-1.1 1-3.4 2.9-3.8 3.3-.6.6-.7 1-.4 1.3.4.4.9.5 2.3-.8 1.8-1.6 1.9-1.7 3.7.2 4.9 5.2 15 17.8 15.3 18 2.5 2.9 2.1 3.7 1 5.1-1 1.2-1.3 1.6-.8 2.1.4.4.9.1 1.2-.1.6-.6 2-2.2 3.4-3.5 1.7-1.6 3.2-2.7 3.7-3.2.4-.4 1.2-1.1.6-1.7-.5-.6-1.2 0-2.1.9-2 1.8-2.6 1.9-8.4-4.3-3.8-4.1-7.8-8.9-11.6-13.6l.1-.1 25.7 11.8c.9.4 1.4.5 1.8.1.4-.4.3-.9-.3-2.2l-10.5-26.2zm33.4-1c1.7 1.4 2.9 2.3 1.3 4.5-.6 1-1.1 1.6-.5 2.1.6.5 1.1 0 1.4-.4.2-.3.5-.7 1-1.4s1.3-1.8 2.7-3.5l.4-.5c.2-.3 1.9-2.2 3.9-4.6 2-2.4 4.5-5.3 6.2-7.5 1-1.2.9-2 .1-2.7-1.5-1.4-3.8-4-4.3-4.5-.3-.2-.7-.4-1 0-.3.4-.2.6.7 2.6 2.1 4.8 0 7.4-1.5 9.2-2.9 3.6-4.1 4.1-7.1 1.6l-7.3-5.9c-1.3-1-1-1.4.6-3.4 2.8-3.5 3.8-4.6 7.8-2.9 1 .4 1.4.4 1.7 0 .4-.5-.2-1-.4-1.2-.3-.3-1.9-1.3-2.2-1.6-.9-.8-5-4.6-5.6-5.1-.5-.4-.8-.3-1 0-.2.2-.3.5.1 1.1 1.6 2.6 2.2 3.7-1.6 8.4-2 2.5-2.3 2.2-3.7 1.1l-6.1-5c-2.1-1.7-2.3-2.1-.6-4.2 4.9-6 7.3-5.7 8.8-5.3 2.2.5 2.4.6 2.8.1.3-.4-.2-.8-.4-1l-3.9-3.1c-1-.8-1.3-1.1-1.7-.6-.1.1-.1.2-.9 1.3-.9 1.2-2.6 3.4-6.1 7.7l-1.6 2c-2.9 3.6-4.4 5.4-5.2 6.3-.8.9-.9.9-.9 1-.2.3-.7.8-.1 1.3s1.2 0 2-.9c1.8-2 3-1.1 4.7.3l17.5 14.7zm21.1-27.6c1.9 1.2 3.1 2 1.9 4.3-.6 1-.9 1.7-.3 2.1.7.4 1-.2 1.3-.6.5-.8 2.7-4.7 3.2-5.5.1-.2 3.1-4.5 3.6-5.4.2-.4.7-.9 0-1.3s-1.1.2-1.8 1.2c-1.6 2.2-2.8 1.4-4.8.2l-8.3-5.2c-.8-.5-1-.8-.5-1.5 1.3-2.1 1.6-2.2 4.2-2l14 1c1.3.1 1.8.2 2.3-.7.3-.4 1.1-2.2 1.4-2.6.4-.7 2.5-3.6 2.9-4.2.2-.3.4-.8-.1-1.1-.6-.4-.9 0-2 1.4-1 1.2-2.5 1.1-4.7 1l-10.7-.5c-2.6-.2-3.2.2-4 .6.7-1.8 2.5-7.2-2.9-10.6-1.6-1-7.7-3.8-12.8 4.3-.9 1.4-4.5 7.6-5.3 8.9-.3.6-1.9 2.7-2.2 3.2-1 1.5-1.1 1.7-.4 2.1.6.4 1.1-.2 1.8-1.2 1.6-2.2 2.8-1.4 4.7-.2l19.5 12.3zm-17-17.4c-1.8-1.1-2.9-1.9-1.6-4 3.6-5.7 8.9-3.3 10.6-2.2 5.8 3.6 2.9 8.2 1.9 9.8-1.4 2.3-1.5 2.2-3.1 1.2l-7.8-4.8zm18-31.7c-1.9-.9-3.2-1.5-2.3-4 .4-1.1.7-1.8 0-2.1-.7-.3-1 .3-1.2.7-.3.7-.9 2.4-2.5 6-1.4 3-2.4 4.7-2.9 5.7-.2.4-.5 1 .2 1.4.7.3 1.1-.3 1.7-1.4 1.3-2.4 2.6-1.8 4.7-.8l20.8 9.7c2 .9 3.3 1.5 2.4 4.1-.4 1.1-.7 1.8 0 2.1.7.3 1-.3 1.2-.7.2-.5 1.2-3 2.5-5.9 1.5-3.3 2.5-4.8 3-5.8.2-.4.5-1-.2-1.4-.7-.3-1.1.3-1.7 1.4-1.3 2.4-2.6 1.8-4.7.8l-21-9.8zm12.9-39.5c-1.5-.3-2-.2-3.3 1.9-1.8 3.3-2.3 4.1-3.2 6.4-4.9 13.3 2.1 22.8 9.2 25.4 6.5 2.4 18.5.3 23.2-12.6 1.9-5.2 1.5-9.2 1.3-10.2-.2-1.3-.6-1.6-1.3-1.9l-4.2-2c-.4-.1-.8-.3-1.1.5-.2.5.4 1.2.6 1.4 3.2 3.6 5.2 6.9 3.5 11.6-2.8 7.7-12.5 8.9-19.7 6.3-6.5-2.4-13.3-9.2-10.3-17.6 1.7-4.7 4.8-5.7 8.2-6.6 1-.3 1.2-.5 1.4-.9.2-.6-.1-.7-.6-.9l-3.7-.8zm23.2-20.2c.3-1.4.3-1.6 2-1.9l6.9-1.1c.2-.1 1.1-.2 1.6-.1.8.2 1 .7.8 2.1-.1 1.1-.1 2 .6 2.1.7.1.9-.5 1-1.1 0-.2.4-3 1-6.2.2-.9 1.3-5.3 1.4-6.2.1-.3.2-1.2-.5-1.4-.7-.1-.9.4-1.2 1.3-.7 2.1-2 2.4-6.5 3.3l-21.9 4.4c-1.1.2-2.7.5-4.3.8-2.3.4-2.8.5-2.9 1.1-.1.5-.1.5 4.7 3.5 8.6 5.3 20.1 12.4 23.1 14.8 1.7 1.4 1.6 1.9 1.5 3.7-.1.9-.1 1.6.6 1.8.8.2.9-.5 1-.9.1-.7.5-3.9.6-4.5.3-1.5 1.1-4.7 1.2-5.2.2-1.2.4-1.9-.4-2-.6-.1-.9.5-1.2 1.9-.3 1.2-.7 2.5-2 2.3-.6-.1-2-.9-2.1-.9l-5.4-2.9c-1.3-.7-1.3-.7-1-2.3l1.4-6.4zm-3 5.5c-.2 1-.2 1.3-.8 1.2-.4-.1-.9-.3-1-.4l-8.4-5.1 9.9-2c.4-.1.8-.2 1.1-.1.2 0 .4.1.1 1.3l-.9 5.1zM53.4 341.1c0 3.1 2.5 5.6 5.6 5.6s5.6-2.5 5.6-5.6c0-3.1-2.5-5.6-5.6-5.6s-5.6 2.5-5.6 5.6zm566.2-2.1c0 3.1 2.5 5.6 5.6 5.6 3.1 0 5.6-2.5 5.6-5.6 0-3.1-2.5-5.6-5.6-5.6-3.1 0-5.6 2.5-5.6 5.6zM457.7 175.6c-1.1-2.5-3.8-3.5-8.1-2.9-32.2 4.2-80.2 31.7-85.9 45.8-2.5 6.1-1.6 11.6-.8 16.1 1 6 1.1 7.8-3 9.5-2.5 1-3.8.4-4.6-.2-2.4-1.8-3.8-6.8-3.2-11.7l.2-1.3c.6-4.1 1.5-11-2.2-15-1.3-1.3-3.6-2.9-7.5-2.7-4.6.3-6.6 2.7-7.8 4.1l-.2.2c-.1-.1-.3-.1-.5-.3-3.8-2.4-8.4-1.5-12 2.4-1.5 1.6-2.8 3.8-3.1 5.8l-1 2.1-1.1 2.3h4.8c.6.2 1.3.2 2.1 0h4.2c2.1 2 3.2 7.2 2.2 10.4-.8 2.5-4.3 5-8.9 4.8-3.7-.1-6.4-3.7-6.6-8.6-.1-2.6.5-4.3 1-6 1.5-4.4 2.1-7.9-2.9-16.1-8.9-14.8-68.9-44-81.5-42.1-3.4.5-4.3 2.7-4.5 3.7-.4 1.6-.6 2.9-.6 4.1 0 3.8 1.9 5.6 4 7.2.7.5 1.2 1 1.7 1.7-.5 1.8-.8 3.5-.8 5.1 0 7.9 5.3 13.6 10.5 19.2 0 0 2.3 2.5 2.7 2.9 0 .3-.2.9-.3 1.4-.3 1.5-.6 3-.6 4.6 0 5 2.7 10.9 14.2 18 .1 0 .2.1.2.1l2.1 1.2c.2.2.2 1 .2 1.6.1 5.7 1.6 11.8 17 18.6v.4h.2c-.5 1.4-1.4 3.7-1.4 6.3 0 3.1 1.3 6.4 6 8.8-.1.5-.1 1-.2 1.5-.3 1.5-.6 3.3-.6 5.2 0 2.4.5 4.9 2.2 7 1.7 2.1 4.4 3.4 8 3.9 0 .4-.1.9-.1 1.5 0 3.3 1 8.6 9.1 9.9.6 1.5 1.8 4.2 5 5.4 2 .7 4.4.7 7.2-.1-.4 1.2-.7 2.5-.7 3.7 0 1.4.4 2.7 1.3 3.9.3.4.7.7 1.1 1-8.1.2-10.6 3.3-12.4 6.5-.8 1.4-.8 1.5-2.8 1.5h-17.1c-11.7.3-11.6 8.5-11.5 14v1.6h8v-1.7c-.1-5.8-.1-5.8 3.7-5.9H299c6.1 0 8.2-2.8 9.8-5.5.9-1.5 1.4-2.5 6.2-2.5h1c-6.3 8.1-2.2 12.6-.7 14.2 2 2.1 5 4 8.9 2.3.7 1.5 1.7 2.7 3 3.4 2.6 1.4 5.4.3 7.1-.6 1.9 2.3 4 3.5 6.1 3.7 3.3.3 5.7-2 7-3.4 2.8 1.3 5.2 1.7 7.3.7 2.1-1 3.1-2.9 3.6-4.8 5.3 1.8 8.1-1.2 9-2.4 1.3-1.7 1.9-4.1 1.9-6.5 0-2.5-.7-5-2-6.7h.7c4.8 0 5.4.9 6.2 2.5 1.5 2.7 3.6 5.5 9.8 5.5h16.9c3.8.1 3.8.1 3.7 5.9v1.7h8v-1.6c.1-5.5.1-13.7-11.5-14h-17.1c-2 0-2-.1-2.8-1.5-1.9-3.3-4.4-6.5-13.2-6.5h-1.1c.3-.2.6-.4.8-.6.9-.9 1.2-2 1.2-3.3 0-.9-.2-1.9-.4-2.9 3.1 1.6 5.9 2.2 8.3 1.6 4.5-1.1 6.4-5.2 7.7-7.9 0 0 .5-.9.7-1.4 8.2-1.6 9.5-6.7 9.5-10.3 0-.9-.1-1.7-.1-2.3v-1c5.5-2.2 6.8-5.6 6.8-8.7 0-1.6-.3-3.1-.6-4.3-.3-1.3-.5-2.2-.5-3 0-.7.2-1.1.5-1.6 3.2-3.6 4-7 4-9.8 0-1.9-.4-3.4-.6-4.6l-.2-.8c20.3-5.9 20.8-16.6 21-21.7 0 0 .1-.7.1-1.2.6-.4 1.3-.9 1.8-1.4l-.2-.2c13.4-10.9 15.9-18 15.9-23.9V208.8c8.1-8.4 8.7-15.8 8.9-19.8 0-.6.1-1.3.2-1.6 2.4-2 6.6-6.1 6.6-10-.1-.5-.2-1.1-.5-1.8zM328 223c.2-.1.4-.3.6-.4.8-.3 1.3-.3 2 .1 5.2 3.2 7.8.2 9-1.3.9-1.1 1.4-1.7 3.2-1.8 1.8-.1 2.3.5 2.5.6 1.6 1.8.9 7.2.6 9.8l-.2 1.4c-.7 6.1.8 13.8 5.7 17.5.1.1.3.2.5.3-.9 1.6-3.4 3.9-7.1 5-3.5 1.1-9.5 1.5-14.2-5.4 2.7-1.6 4.7-4 5.6-6.8.5-1.4.7-3.1.7-4.8 0-4.6-1.6-9.7-4.9-12.6-1.3-.8-2.6-1.3-4-1.6zm-7.1 28.4c1.2 0 2.4 0 3.5-.2 5.9 9.9 15.1 11.4 22.2 9.3 5.5-1.7 9.9-5.5 11.5-9.4 1.1-.1 2.3-.3 3.5-.8-.5 6.4-3.3 11.5-8.2 14.8-6.6 4.4-16.2 4.6-23.4.5-5.3-3.1-8.4-8-9.1-14.2-.1 0-.1 0 0 0zm-12.8-14.8c.2 5.4 2.5 9.9 6 12.5.2 9.5 4.7 17.5 12.7 22 9.3 5.3 21.4 5 30.1-.8 7.9-5.2 11.7-13.9 11-24.7 1.3-1.9 1.7-4.1 1.7-6.4 0-2-.3-3.9-.6-5.8-.3-1.8-.6-3.6-.7-5.5 10 18.9 9.5 34.8-1.5 45.1-12.3 11.5-35.3 12.5-49.3 2.2-11.6-8.6-14.8-23.3-9.4-41.3v2.7zm41.4 67.6c0-14.2.7-16.6 5-16.8 1.2-.1 2.2.3 3 1.1 1.4 1.3 2 3.4 2 4.5v16h-3v11h-3.9v-11h-2.9c-.2-1.2-.2-2.7-.2-4.8zm-28.7.3c0-14.2.7-16.6 5-16.8 1.2-.1 2.2.3 3 1.1 1.4 1.3 2 3.4 2 4.5l.2 7.7c.1 2.7.2 5.4.2 8H328v11.1h-4.1V309H321c-.1-1.1-.2-2.5-.2-4.5zm23.5-15.7c-.5 1.8-.8 3.9-1 6.1h-6.1v-1.6c0-1.3-.3-3-1-4.6 2.7.2 5.4.2 8.1.1zm-34.1-11.4zM234 182.2c-1-.7-1.5-1.1-1.5-2.2 0-.4.1-.9.2-1.4 9.8-1 67.2 27 74.5 39.1.1.2.2.4.4.6-6.1 12.7-8.4 23.1-8.4 31.6-12.5-14.8-13.2-28.9-12.2-36.5.1-.9.3-2.6-1.3-3.7l-1.6-1.1-1.7.9c-2.5 1.2-8.9 1.8-17.1-4.1-1.2-.8-3.1-3.2-5.1-5.7-6.1-7.4-14.3-17.4-24.3-15.9-.7-.7-1.3-1.2-1.9-1.6zm11.2 25.5c-4.6-5-7.7-8.9-7.7-13.7 0-1.2.2-2.5.6-3.9 6.1.2 12.4 7.9 17.1 13.7 2.5 3 4.5 5.5 6.3 6.8 8 5.8 14.5 6.5 18.8 6 0 .6-.1 1.1-.1 1.7 0 1.7.1 3.6.3 5.6-3.4.5-9.9-1-13-2.5-1.9-.9-3.9-2.8-6.1-4.8-4-4-9.2-8.8-16.2-8.9zm15.4 26.9c-9.1-5.6-10.9-9.6-10.9-12.6 0-1.1.2-2 .4-2.9.2-.9.5-2 .5-3.1 2.3 1.4 4.4 3.3 6.4 5.3 2.5 2.4 5 4.7 7.7 6 2.7 1.3 10.9 3.9 16.9 2.9.6 2.4 1.4 5 2.5 7.7-4.1.8-17.2-.9-23.5-3.3zm18.3 21c-12.4-5.6-12.4-9.6-12.5-12.6v-.2c7.2 1.5 16.1 2.4 20.6.8 1 1.7 2 3.5 3.2 5.2-2.5 3.6-7.8 6.3-11.3 6.8zm4 14.4-.1.2c-.5-.6-.8-1.2-.8-2 0-1.1.5-2.3 1.1-4 .3-.8.8-2.1.9-3.5 3.7-1.4 7.6-3.8 10.3-6.9 1.8 2.1 3.7 4.2 5.9 6.2-.5 1.1-2.2 3.2-5.7 5.7-4.3 3.3-9.2 5-11.6 4.3zm8 18.4c-1.1-.3-2.2-.7-2.8-1.5-.6-.7-.8-1.8-.8-3 0-1.3.3-2.8.5-4.2.2-1 .4-2.2.4-3.3v-.4c4.4-1.2 8.5-3.8 10-4.8 1.1-.8 3-2.2 4.7-4 .5 1 1 2 1.6 2.9l-.1.1-.3-.6c.2 1.2-1.6 6.3-5.8 11.9-3 4.1-5.7 6.3-7.4 6.9zm7.9 10.5.1.5c-1.2-.6-1.5-1.5-1.5-2.8 0-.4 0-.9.1-1.5 0-.5.1-.9.1-1.4 0-.6-.1-1.3-.2-1.9 5-4 9.5-11 11.6-15.8.4.4.8.8 1.1 1.2.5 1.2-.4 7-4.2 13.7-3.2 5.6-6 7.9-7.1 8zm8.5 6.7c-.5-.2-.8-.8-1.3-1.9-.2-.4-.4-.9-.7-1.5 4.7-4.3 8.6-12.3 10.3-18.1.2-.8.4-1.5.5-2.2.9.6 1.8 1.1 2.7 1.6-4.3 3.7-4.4 11.2-4.4 20.3-4.8 2.3-6.6 2-7.1 1.8zm33.8 37c-.4-1.6-.5-4.8-.5-7.2-.1-5.7-.2-12.6-3.6-17.3.1-.4.2-.8.2-1.3.5-4.8.4-10.3.2-15.6h5.7v2.9c0 6.3.3 8.2.7 10.2l.3 1.7c.1.7.3 1.4.7 2.1-2.1 3.6-2.3 9.4-2.6 14.8-.2 3.1-.4 7.7-1.1 9.7zm37.5-38.5c-.9 1.9-1.9 4.1-3.4 4.4-.8.2-3 .2-7.8-3.5-.5-.4-1-.7-1.5-.9V293c0-2.6-1.2-6.3-3.8-8.9l1.2-.6c1.1 3.2 3.3 6.5 4.1 7.8 1.9 2.8 6.1 8.4 11.7 11.6-.2.4-.4.8-.5 1.2zm7.1-5.3c-8.6-2.1-16.7-16-16.7-18.8v.2l-.3-.1c.9-.7 1.8-1.5 2.7-2.3.7-.6 1.4-1.4 2.2-2.3 4 1.7 13.5 11.5 14.4 15.3h.1v.8c0 .7.1 1.3.1 1.8.1.7.1 1.4.1 2-.1 1.6-.6 2.7-2.6 3.4zm6.8-13c-3.1-5.2-9.7-12.3-15.3-15.4.5-.8.9-1.7 1.4-2.6 1.9-.1 4.9.8 7.8 2.4 3.8 2 6.4 4.5 7.2 5.9 0 1.6.4 3.1.6 4.4.3 1.2.5 2.1.5 2.8.1 1.1-.5 1.7-2.2 2.5zm3.9-16.4c-2-1.9-4.6-3.7-6.9-4.9-2-1.1-5.3-2.6-8.6-3l.3-1.5c.9-.9 1.8-1.7 2.7-2.6 4.3-.6 11.2 1.2 13.7 3 .1.4.2.8.2 1.1.2 1.1.5 2.1.5 3.2-.1 1.4-.5 3-1.9 4.7zm5.1-16.2c-.8.2-1.5.6-2.1.9-2.9-1.6-6.6-2.6-10.2-3 2.4-3.1 4.5-6.4 6.2-9.7 4.3.8 14.4.7 22.8-2.1-.4 4.4-2.7 10-16.7 13.9zm19-21.8c-.1.1-.2.2-.3.2-6.2 3.4-16.9 4.2-22 3.7 1-2.6 1.9-5.2 2.5-7.9 5.8 1 12.8-1.2 15.8-4.4 4.1-4.3 13.9-11.3 19.5-12.7v.5c0 3.4-1.2 9.5-15.5 20.6zm24.4-42.6c-.2 3.5-.6 8.6-6.5 15-10.5-.7-26.4 14.7-26.6 14.8-1.5 1.6-6.4 3.1-10 2.5.3-2.1.4-4.2.4-6.4 4.9.1 11.8-2 19.4-7.5 1.8-1.3 3.7-3.5 5.9-6.1 4.7-5.4 11-12.7 17.3-12.5.1.1.1.2.1.2zm2.6-6.3c-10.3-2-19 7.8-24.7 14.5-1.9 2.2-3.7 4.2-4.8 5.1-9.2 6.6-16 6.8-17.5 6l-1.6-.8-1.5 1c-1.6 1-1.5 2.6-1.4 3.6.7 13.5-4.3 26.8-14 38.1-.5-8.4-3.6-18.7-11.2-31 8-11.3 48.8-35.9 79.8-40h.4c-.9 1-2.1 2.3-3.5 3.5zM320 331.3c1.9-3.2 4.6-5.2 6.1-4.3 1.5.8 1.1 4.1-.8 7.4-1.9 3.2-4.6 5.2-6.1 4.3-1.5-.8-1.1-4.1.8-7.4zm9.5 4.9c.9-3.2 2.6-5.5 3.8-5.1 1.2.4 1.5 3.4.6 6.6-.9 3.2-2.6 5.5-3.8 5.1-1.1-.4-1.4-3.4-.6-6.6zm32.2-5.3c-1.8-3.3-4.5-5.3-5.9-4.4-1.4.8-1.1 4.2.8 7.5 1.8 3.3 4.5 5.3 5.9 4.4 1.4-.8 1-4.2-.8-7.5zm-9.1 5.4c-.9-3.3-2.5-5.6-3.7-5.2-1.2.4-1.5 3.5-.6 6.8.8 3.3 2.5 5.6 3.7 5.2 1.1-.5 1.4-3.5.6-6.8zm21.9 65.1 16.8-5-1.4-4.8-16.6 5v-1.2c.1-5.8 5.3-8.5 16.8-8.5h2.4v-12H285.3l.6 2.9c1.6 7.6 10.7 13.7 21.1 14.2l2.1.1c4.5.1 11.2.4 13.3 2.6 1.4 1.6 1.8 4.5 0 6.7-.5.4-2.8 1.2-11.7 1-2.1 0-2.6 0-3.4.7-.7.7-.7.7-.7 10v2.4h34.7l1.3 4.4 9.3-2.8-.5-1.6h32.2V404.9l-2-.3c-3.2-.6-5.7-1.1-7.1-3.2zm-6-3.4-20.5 6.2-2.5-8.3-9.3 2.8 3.6 11.9h-28.4v-3.4c7.6.1 12.7-.4 14.7-2.7 1.6-1.9 2.3-4.2 2.3-6.3 0-2.6-1-5-2.5-6.7-3.5-3.8-10.8-4-16.7-4.2l-2-.1c-6.5-.3-12.6-3.4-15.3-7.5h95.8v2.4c-6.6.2-19 1.6-19.2 13.2v.5c-.1.8-.1 1.5 0 2.2zm-19.1 11 20.3-6.1c2 4.1 5.7 5.3 8.9 6v1.7h-28.8l-.4-1.6zm8.1 13.8h74.9V377.8c0-4.3 1.6-8.1 5.1-11.7-19.8 0-173.7.1-192.7.2 3.9 4 5.8 7.9 5.8 11.7v44.9h106.9v-.1z" style="fill-rule:evenodd;clip-rule:evenodd;fill:#0059aa"/></svg>